<?xml version="1.0" encoding="UTF-8" standalone="no"?>
<svg
   xmlns:dc="http://purl.org/dc/elements/1.1/"
   xmlns:cc="http://creativecommons.org/ns#"
   xmlns:rdf="http://www.w3.org/1999/02/22-rdf-syntax-ns#"
   xmlns:svg="http://www.w3.org/2000/svg"
   xmlns="http://www.w3.org/2000/svg"
   id="svg48"
   version="1.1"
   viewBox="0 0 64 64"
   height="64px"
   width="64px">
  <metadata
     id="metadata52">
    <rdf:RDF>
      <cc:Work
         rdf:about="">
        <dc:format>image/svg+xml</dc:format>
        <dc:type
           rdf:resource="http://purl.org/dc/dcmitype/StillImage" />
        <dc:title></dc:title>
      </cc:Work>
    </rdf:RDF>
  </metadata>
  <defs
     id="defs17">
    <linearGradient
       gradientTransform="matrix(1.6,0,0,-2,13.2014,68)"
       y2="8"
       x2="11.7494"
       y1="12.1142"
       x1="11.7494"
       gradientUnits="userSpaceOnUse"
       id="linear0">
      <stop
         id="stop2"
         style="stop-color:rgb(50.588235%,53.72549%,56.470588%);stop-opacity:1;"
         offset="0" />
      <stop
         id="stop4"
         style="stop-color:rgb(62.352941%,65.882353%,69.019608%);stop-opacity:1;"
         offset="1" />
    </linearGradient>
    <linearGradient
       gradientTransform="matrix(2,0,0,-2.1112,0,70.6696)"
       y2="20.2111"
       x2="29.5"
       y1="20.2111"
       x1="2.5"
       gradientUnits="userSpaceOnUse"
       id="linear1">
      <stop
         id="stop7"
         style="stop-color:rgb(33.333333%,35.294118%,37.254902%);stop-opacity:1;"
         offset="0" />
      <stop
         id="stop9"
         style="stop-color:rgb(29.411765%,30.980392%,32.54902%);stop-opacity:1;"
         offset="1" />
    </linearGradient>
    <linearGradient
       gradientTransform="matrix(1.9286,0,0,-2,2.357,70)"
       y2="12.2388"
       x2="28.9991"
       y1="29.7613"
       x1="1.7418"
       gradientUnits="userSpaceOnUse"
       id="linear2">
      <stop
         id="stop12"
         style="stop-color:rgb(24.705882%,89.019608%,90.588235%);stop-opacity:1;"
         offset="0" />
      <stop
         id="stop14"
         style="stop-color:rgb(2.352941%,41.960784%,73.72549%);stop-opacity:1;"
         offset="1" />
    </linearGradient>
    <radialGradient
       gradientUnits="userSpaceOnUse"
       gradientTransform="matrix(1.1841,0.66866,-0.52684,0.93295,11.629,-12.696)"
       r="28"
       cy="28.705"
       cx="20.107"
       id="radialGradient875">
      <stop
         id="stop2-3"
         offset="0"
         stop-color="#5ab5e2" />
      <stop
         id="stop4-6"
         offset=".45901"
         stop-color="#4189ac" />
      <stop
         id="stop6"
         offset="1"
         stop-color="#295e76" />
    </radialGradient>
  </defs>
  <path
     style="fill:#b8c2cc;fill-opacity:1;fill-rule:nonzero;stroke:none"
     d="m 8.03125,8.5 h 47.9375 C 57.644531,8.5 59,9.855469 59,11.53125 V 14 H 5 V 11.53125 C 5,9.855469 6.355469,8.5 8.03125,8.5 Z m 0,0"
     id="path19" />
  <path
     style="fill:#bac5cf;fill-opacity:1;fill-rule:nonzero;stroke:none"
     d="M 20.667969,50 H 43.335938 L 46,54 H 18 Z m 0,0"
     id="path21" />
  <path
     style="fill:url(#linear0);fill-rule:nonzero;stroke:none"
     d="m 28,44 h 8 v 8 h -8 z m 0,0"
     id="path23" />
  <path
     style="fill:#42474a;fill-opacity:0.99607801;fill-rule:nonzero;stroke:none"
     d="m 18,54 h 28 v 2 H 18 Z m 0,0"
     id="path25" />
  <path
     style="fill:url(#linear1);fill-rule:nonzero;stroke:none"
     d="M 7.894531,9 H 56.105469 C 57.734375,9.03125 59.027344,10.371094 59,12 v 32 c 0.02734,1.628906 -1.265625,2.96875 -2.894531,3 H 7.894531 C 6.265625,46.96875 4.972656,45.628906 5,44 V 12 C 4.972656,10.371094 6.265625,9.03125 7.894531,9 Z m 0,0"
     id="path27" />
  <path
     style="fill:url(#linear2);fill-rule:nonzero;stroke:none"
     d="M 7.925781,10 H 56.074219 C 57.15625,10.019531 58.019531,10.914062 58,12 v 32 c 0.01953,1.085938 -0.84375,1.980469 -1.925781,2 H 7.925781 C 6.84375,45.980469 5.980469,45.085938 6,44 V 12 C 5.980469,10.914062 6.84375,10.019531 7.925781,10 Z m 0,0"
     id="path29" />
  <g
     id="g135"
     transform="matrix(0.35367232,0,0,0.35367232,34.238595,1.0848589)">
    <circle
       style="fill:#5e4aa6;stroke-width:1.00000656"
       id="circle20"
       r="0"
       cy="-1252.1281"
       cx="-1241.3506" />
    <circle
       style="fill:#5e4aa6;stroke-width:1.00000656"
       id="circle22"
       r="0"
       cy="-1244.0775"
       cx="-1172.4106" />
    <circle
       style="fill:#5e4aa6;stroke-width:1.00000656"
       id="circle24"
       r="0"
       cy="-1269.8544"
       cx="-1149.3928" />
    <circle
       style="fill:#5e4aa6;stroke-width:1.00000656"
       id="circle26"
       r="0"
       cy="-1243.1704"
       cx="-1160.0514" />
    <rect
       style="fill:url(#radialGradient875);stroke-width:1.07140005"
       id="rect30"
       ry="30"
       rx="30"
       height="60"
       width="60"
       y="2"
       x="1.9999964" />
    <path
       style="fill:#b3ff80;stroke-width:1.07140005"
       id="path32"
       d="m 32.155,3.5 c -2.3137,0.16407 -4.5771,0.58882 -6.7844,1.3043 -0.78748,0.030731 -2.4989,1.045 -1.1181,1.521 0.6426,0.68651 2.1767,0.90495 1.9904,2.0267 0.24782,0.986 -2.2918,0.94126 -1.4465,1.8343 0.59936,0.78881 1.1987,1.5776 1.7981,2.3664 1.1067,-0.35547 1.4719,-1.4889 2.0859,-2.3613 1.7091,-0.75383 4.128,-0.98158 5.2575,-2.4323 C 34.29183,6.7329 34.64576,5.7068 34.9997,4.6806 34.05146,4.28705 33.1032,3.89349 32.155,3.4999 Z m -8.2266,0.26367 c -1.0601,-0.11437 -1.7382,0.53714 -2.5295,0.96425 -0.97402,0.11929 -2.0745,0.48179 -2.6883,1.2652 1.0926,0.49584 1.7807,-0.032613 2.7238,-0.40703 0.87565,-0.44861 3.8539,-0.63578 2.494,-1.8225 z m -6.8408,3.1465 c -0.54502,0.83192 0.38282,2.036 -0.86392,2.4726 -0.61541,0.77905 -1.1532,2.0578 0.38498,1.5938 0.37629,-1.1544 1.5452,-2.7737 2.8755,-2.0976 1.3399,0.36 2.58,2.6116 3.674,0.82819 -4.42e-4,-0.4638 -1.7017,-0.73518 -1.6637,-1.8699 -0.75704,-0.32478 -2.3753,0.26543 -2.3188,-0.91487 -1.0937,-0.48563 -1.4087,1.9342 -1.7963,0.58172 C 17.2821,7.30615 17.18484,7.10819 17.08757,6.91022 Z m 29.689,1.0488 c -1.2945,0.25885 -2.5731,0.55454 -3.5947,1.4443 0.29654,1.1856 -1.233,1.3851 -1.9133,2.0432 -0.49359,0.27853 0.009,2.4301 0.44143,2.0961 0.91955,-1.2132 1.3952,-0.16667 2.25,0.43241 0.76937,0.7146 1.2579,-1.327 0.84924,-1.9025 -0.23978,-0.92753 0.92673,-1.6137 1.3465,-2.3733 1.2834,-0.82324 0.19894,1.0503 0.15788,1.7044 -0.64783,1.933 2.8735,0.05824 0.55235,1.5028 -0.62261,0.62177 -0.85059,1.5429 -1.8073,2.0024 -0.51657,0.63052 -2.4881,0.33495 -2.2226,-0.64857 -0.71996,-1.1284 -0.54225,1.3581 -0.78684,1.3462 -1.1932,-0.35557 -1.5483,0.97629 -2.2966,1.6135 -0.57266,0.65792 -2.5943,0.24967 -1.085,1.2688 1.1008,1.2702 -0.21938,1.0353 -1.13,1.3736 -1.2869,0.22162 -1.0718,1.3424 -1.0385,2.3544 0.01983,0.55771 1.2549,1.3851 1.8804,0.99613 1.2494,-0.13383 0.93415,-1.6671 1.8572,-2.1347 0.76696,-0.65652 1.3052,-1.262 2.4568,-1.2777 0.53168,0.5074 1.6063,1.2702 2.0421,1.685 -1.2027,1.3104 0.5524,1.2036 0.72029,0.0099 0.59325,-0.65742 -1.9541,-2.2044 -0.27426,-1.5247 1.1119,0.36681 0.8562,1.5027 1.3509,2.2695 0.87936,1.4865 0.97353,0.37725 1.0554,-0.77263 1.461,-0.45895 1.857,2.5441 3.8262,1.8398 1.4758,0.38778 0.77644,1.3421 -0.15538,1.9583 -0.85102,0.62068 -2.12,0.19524 -3.054,-0.14169 -0.924,-0.4744 -2.0376,-0.20241 -2.524,0.74106 -1.0798,-0.93189 -1.8442,-2.4123 -3.4129,-2.4943 -1.4853,-0.07694 -2.9848,0.31799 -4.4182,0.72183 -1.5882,1.8639 -3.3065,3.6792 -4.0465,6.0615 -0.76814,0.94397 0.87719,1.5095 -0.37347,2.3686 -0.87071,0.81297 0.29654,1.8171 0.47676,2.7287 0.93703,1.1112 2.3736,4.7663 3.8207,3.3525 0.81438,-1.2867 1.3544,0.84284 2.312,-0.49353 0.80601,-0.73568 1.4588,0.73924 2.5891,0.21462 1.0051,0.50101 1.0925,1.4831 0.5614,2.4229 -0.34107,0.95418 1.4776,1.3465 0.96015,2.4604 -0.24394,1.0893 0.23393,2.014 0.77504,2.9243 -1.2028,1.2555 -1.0578,3.1153 -0.75755,4.6885 0.5885,2.1568 1.4313,4.3198 1.3471,6.5908 1.0539,0.27644 1.8313,-0.42158 2.7028,-0.78808 1.6634,0.23531 2.5683,-1.5396 3.6012,-2.5576 -0.77595,-1.0431 0.63745,-1.4932 1.2217,-2.168 -0.87392,-0.75594 -1.453,-1.4898 -0.10001,-2.0793 0.62412,-0.63389 1.7933,-0.99227 1.9983,-1.8765 -0.53746,-1.6016 -0.23138,-3.3033 -0.31043,-4.9592 0.66264,-1.3355 1.3662,-2.6426 2.4668,-3.6738 0.43893,-1.4482 1.4939,-2.7756 1.3916,-4.3301 -2.5654,0.76752 -1.7908,-0.32602 -0.36912,-1.3656 0.98661,-0.72357 2.3894,-1.3985 2.6894,-2.6322 0.21531,-1.2176 -0.73624,-3.1081 -1.5641,-1.3192 -0.40215,-0.5701 -1.8188,-1.0988 -1.7992,-1.9937 -0.30338,-1.8047 0.48802,-0.72073 1.1916,0.13152 1.6365,-1.2131 3.7722,3.3481 3.0815,0.09345 -0.93567,-7.0436 -4.5072,-13.698 -9.8571,-18.373 -0.48921,0.52096 -1.3056,2.4632 -1.898,1.3421 -0.83867,-0.88969 -1.4969,-1.6929 0.21145,-1.3626 1.6742,-0.45433 0.0066,-0.71854 -0.8712,-0.82216 -0.88013,-0.10276 -1.6963,-0.42511 -2.5252,-0.71886 z m -32.769,0.043946 c -1.1076,0.42661 0.55157,2.0532 -1.4342,1.5323 -2.1771,0.98651 -3.6274,3.3806 -5.1406,5.2449 -3.5297,4.9882 -5.4487,11.084 -5.434,17.194 0.57916,1.1954 2.0056,1.6005 3.0728,2.2604 1.0846,0.37105 2.4505,0.31499 2.9903,1.5132 0.60373,0.63221 1.4138,1.48 2.2763,1.5486 1.3254,-0.42472 1.5123,0.77701 0.84363,1.666 -0.07239,0.97374 -1.1562,1.7591 -1.0354,2.6155 0.24147,0.95958 -1.2072,2.0165 -0.2313,2.8944 1.0267,1.8355 2.1255,3.618 3.514,5.2033 0.86363,0.75664 0.76122,1.7984 0.66264,2.839 -0.34272,1.0998 0.69677,1.736 1.2547,2.5337 -1.3596,2.4928 2.323,2.991 3.8643,4.081 0.77489,-0.70862 0.83648,-1.8555 2.122,-1.8875 0.77954,-0.54617 0.94597,-1.779 1.4814,-2.5987 -0.01713,-0.87067 -0.57472,-1.6843 0.33048,-2.6326 0.68205,-0.57568 2.0895,-0.19181 2.3434,-1.3936 0.9265,-0.95435 0.17683,-2.277 0.17683,-3.4349 0.71969,-0.98584 1.9613,-1.7426 1.8235,-3.1048 0.15591,-2.0317 -3.502,-1.9404 -4.7909,-3.1722 -1.5843,-0.04552 -1.2639,-2.2043 -2.4972,-2.4911 -1.2244,0.06154 -1.6696,-0.89774 -2.1036,-1.8717 -0.67438,-0.45993 -1.9436,0.47478 -2.6493,-0.10166 -0.7993,-0.42109 -1.5163,-1.9918 -2.416,-1.0102 -1.1841,0.85855 -2.3486,1.7307 -3.4719,0.29331 -0.72849,-0.65646 0.18681,-2.5199 -0.84463,-2.4025 -2.2019,0.79644 0.69786,-3.1983 -1.3634,-2.6683 -0.48819,0.76521 -1.4246,1.9459 -2.3351,1.0404 -0.91436,-0.43022 -0.46331,-1.8291 -0.42254,-2.6669 0.03952,-0.97994 1.2797,-1.4685 1.9924,-1.9155 1.3823,0.61822 1.0986,-1.2241 2.2539,-0.60825 1.1207,-0.23866 1.6267,1.5591 2.0817,1.6261 0.2674,-0.88567 -0.21534,-2.1801 0.6066,-2.7636 0.96038,-0.80838 2.2279,-1.3833 2.4649,-2.7415 0.01964,-1.4509 1.7803,-0.22818 2.2174,-1.2162 0.40297,-1.1321 1.5783,-1.0614 2.5711,-1.275 0.54304,-0.50386 1.9079,-2.0558 0.22176,-1.6008 -0.61414,-0.08303 -3.0865,0.2461 -1.4077,-0.34553 0.82696,-0.62601 1.8293,-0.5392 2.7576,-0.6622 0.73109,-0.61896 2.0091,-0.82629 2.0653,-1.9532 -0.60678,-0.82525 -1.8921,-0.66816 -1.3465,-1.8518 -0.05274,-1.5483 -1.4164,-0.5543 -1.8644,-0.67209 0.72758,-1.0125 -0.94608,-1.65 -1.5078,-1.6642 -0.38178,0.95417 -1.4551,1.7774 -1.0763,2.8756 -1.1191,0.18175 -1.6434,0.99175 -1.9797,2.0002 -0.33552,0.11692 -0.22643,-1.9778 -1.5106,-1.7848 -0.90707,-0.02149 -2.0284,-1.3754 -1.0734,-1.9084 1.3093,-0.8284 2.9372,-1.4768 3.7651,-2.8 0.4761,-1.1851 -0.40192,-1.9125 -1.5711,-1.7442 l -0.16302,-0.0117 z m 22.029,1.3645 c -0.72261,0.56215 -2.1814,0.17387 -2.4894,0.71591 -0.12957,1.0932 1.5679,1.0761 2.2458,0.47257 1.108,-0.40966 1.0586,-0.33488 0.24354,-1.1885 z m -16.052,0.56027 c -1.5357,0.45183 -0.28073,1.4577 0.72177,1.4443 1.1961,-0.09645 0.08325,-1.4357 -0.72177,-1.4443 z m 18.313,3.0176 c -0.10982,0.97825 0.82985,1.5891 0.44174,2.6548 -0.61112,1.3425 0.25454,1.7456 1.2989,0.92043 1.3948,-0.8534 -1.0452,-2.7229 -1.3703,-3.5752 h -0.37038 z m -0.45996,1.5732 c -1.2534,-0.30812 -0.85687,2.3151 0.0044,1.412 0.92745,-0.16188 0.0369,-0.87655 -0.0044,-1.412 z m -15.996,2.3643 c 0.18402,0.9948 0.25018,2.5719 0.97849,0.87787 -10e-4,-0.32926 -0.71956,-0.58675 -0.97849,-0.87787 z m 30.267,10.228 c 1.4732,1.2845 2.07,3.1448 2.9004,4.8516 1.2356,0.64871 0.50417,1.6409 0.67628,2.4746 1.7204,1.5062 -1.7422,0.70398 -1.322,-0.93929 -0.28075,-1.9086 -1.5066,-3.1826 -2.5078,-4.5629 -0.07872,-0.73064 -0.86249,-1.564 0.25314,-1.824 z" />
  </g>
  <g
     transform="matrix(0.55624037,0,0,0.55624037,24.327117,13.590807)"
     id="g76">
    <path
       id="path31"
       d="M 33.933594,4 H 60.066406 C 61.152344,4.019531 62.015625,4.914062 62,6 v 18 c 0.01563,1.085938 -0.847656,1.980469 -1.933594,2 H 33.933594 C 32.847656,25.980469 31.984375,25.085938 32,24 V 6 C 31.98437,4.914062 32.847656,4.019531 33.933594,4 Z m 0,0"
       style="fill:#787573;fill-opacity:1;fill-rule:nonzero;stroke:none" />
    <path
       id="path33"
       d="M 33.964844,5 H 60.035156 C 60.578125,5.007812 61.007812,5.457031 61,6 v 18 c 0.0078,0.542969 -0.421875,0.992188 -0.964844,1 H 33.964844 C 33.421875,24.992188 32.992188,24.542969 33,24 V 6 C 32.9922,5.457031 33.421875,5.007812 33.964844,5 Z m 0,0"
       style="fill:#fafafa;fill-opacity:1;fill-rule:nonzero;stroke:none" />
    <path
       id="path35"
       d="m 36.75,8 h 4.5 C 41.664062,8 42,8.335938 42,8.75 v 4.5 C 42,13.664062 41.664062,14 41.25,14 h -4.5 C 36.335938,14 36,13.664062 36,13.25 V 8.75 C 36,8.335938 36.335938,8 36.75,8 Z m 0,0"
       style="fill:#996ed4;fill-opacity:1;fill-rule:nonzero;stroke:none" />
    <path
       id="path37"
       d="m 44.75,8 h 4.5 C 49.664062,8 50,8.335938 50,8.75 v 4.5 C 50,13.664062 49.664062,14 49.25,14 h -4.5 C 44.335938,14 44,13.664062 44,13.25 V 8.75 C 44,8.335938 44.335938,8 44.75,8 Z m 0,0"
       style="fill:#17b3a1;fill-opacity:1;fill-rule:nonzero;stroke:none" />
    <path
       id="path39"
       d="m 52.75,8 h 4.5 C 57.664062,8 58,8.335938 58,8.75 v 4.5 C 58,13.664062 57.664062,14 57.25,14 h -4.5 C 52.335938,14 52,13.664062 52,13.25 V 8.75 C 52,8.335938 52.335938,8 52.75,8 Z m 0,0"
       style="fill:#f08a07;fill-opacity:1;fill-rule:nonzero;stroke:none" />
    <path
       id="path41"
       d="m 36.75,16 h 4.5 c 0.414062,0 0.75,0.335938 0.75,0.75 v 4.5 C 42,21.664062 41.664062,22 41.25,22 h -4.5 C 36.335938,22 36,21.664062 36,21.25 v -4.5 C 36,16.335938 36.335938,16 36.75,16 Z m 0,0"
       style="fill:#e14f11;fill-opacity:1;fill-rule:nonzero;stroke:none" />
    <path
       id="path43"
       d="m 44.75,16 h 4.5 c 0.414062,0 0.75,0.335938 0.75,0.75 v 4.5 C 50,21.664062 49.664062,22 49.25,22 h -4.5 C 44.335938,22 44,21.664062 44,21.25 v -4.5 C 44,16.335938 44.335938,16 44.75,16 Z m 0,0"
       style="fill:#54b50c;fill-opacity:1;fill-rule:nonzero;stroke:none" />
    <path
       id="path45"
       d="m 52.75,16 h 4.5 c 0.414062,0 0.75,0.335938 0.75,0.75 v 4.5 C 58,21.664062 57.664062,22 57.25,22 h -4.5 C 52.335938,22 52,21.664062 52,21.25 v -4.5 C 52,16.335938 52.335938,16 52.75,16 Z m 0,0"
       style="fill:#0078d4;fill-opacity:1;fill-rule:nonzero;stroke:none" />
  </g>
</svg>
