<?xml version="1.0" encoding="UTF-8" standalone="no"?>
<svg
   xmlns:dc="http://purl.org/dc/elements/1.1/"
   xmlns:cc="http://creativecommons.org/ns#"
   xmlns:rdf="http://www.w3.org/1999/02/22-rdf-syntax-ns#"
   xmlns:svg="http://www.w3.org/2000/svg"
   xmlns="http://www.w3.org/2000/svg"
   viewBox="0 0 64 64"
   version="1.1"
   image-rendering="optimizeSpeed"
   enable-background="new 0 0 1024 1024"
   height="64"
   width="64"
   id="Apps-Visual-Studio-Code">
  <metadata
     id="metadata2">
    <rdf:RDF>
      <cc:Work
         rdf:about="">
        <dc:format>image/svg+xml</dc:format>
        <dc:type
           rdf:resource="http://purl.org/dc/dcmitype/StillImage" />
        <dc:title></dc:title>
      </cc:Work>
    </rdf:RDF>
  </metadata>
  <defs
     id="defs23">
    <style
       id="style4"
       type="text/css" />
    <style
       id="style6"
       type="text/css" />
    <linearGradient
       gradientUnits="userSpaceOnUse"
       gradientTransform="matrix(1 0 0 1.0556 0 -.5)"
       y2="27"
       y1="27"
       x2="60"
       x1="4"
       id="linearGradient1455">
      <stop
         id="stop8"
         offset="0"
         stop-color="#555a5f" />
      <stop
         id="stop10"
         offset="1"
         stop-color="#4b4f53" />
    </linearGradient>
    <linearGradient
       gradientUnits="userSpaceOnUse"
       gradientTransform="matrix(.96428 0 0 1 1.1428 1)"
       y2="45"
       y1="9"
       x2="60"
       x1="4"
       id="linearGradient17498">
      <stop
         id="stop13"
         offset="0"
         stop-color="#3fe3e7" />
      <stop
         id="stop15"
         offset="1"
         stop-color="#066bbc" />
    </linearGradient>
    <linearGradient
       gradientUnits="userSpaceOnUse"
       gradientTransform="matrix(.79998 0 0 1 6.4007 0)"
       y2="52"
       y1="44"
       x2="32"
       x1="32"
       id="linearGradient29240">
      <stop
         id="stop18"
         offset="0"
         stop-color="#818990" />
      <stop
         id="stop20"
         offset="1"
         stop-color="#9fa8b0" />
    </linearGradient>
    <linearGradient
       gradientTransform="matrix(2,0,0,-2,0,68)"
       y2="24.354"
       x2="9.6459999"
       y1="11.7297"
       x1="22.2703"
       gradientUnits="userSpaceOnUse"
       id="linear0">
      <stop
         id="stop2"
         style="stop-color:rgb(100%,100%,100%);stop-opacity:1;"
         offset="0" />
      <stop
         id="stop4"
         style="stop-color:rgb(94.901961%,94.901961%,94.901961%);stop-opacity:1;"
         offset="0.242" />
      <stop
         id="stop6"
         style="stop-color:rgb(80%,80%,80%);stop-opacity:1;"
         offset="1" />
    </linearGradient>
    <linearGradient
       gradientTransform="matrix(2,0,0,-2,0,68)"
       y2="13.7657"
       x2="20.234301"
       y1="23.6143"
       x1="10.3857"
       gradientUnits="userSpaceOnUse"
       id="linear1">
      <stop
         id="stop9"
         style="stop-color:rgb(2.352941%,41.176471%,73.72549%);stop-opacity:1;"
         offset="0.2291" />
      <stop
         id="stop11"
         style="stop-color:rgb(6.27451%,30.588235%,56.862745%);stop-opacity:1;"
         offset="0.8045" />
    </linearGradient>
    <linearGradient
       gradientTransform="matrix(2,0,0,-2,0,68)"
       y2="6.7490001"
       x2="27.172701"
       y1="32.736698"
       x1="1.1849"
       gradientUnits="userSpaceOnUse"
       id="linear2">
      <stop
         id="stop14"
         style="stop-color:rgb(54.117647%,56.862745%,59.607843%);stop-opacity:1;"
         offset="0.1453" />
      <stop
         id="stop16"
         style="stop-color:rgb(38.823529%,43.921569%,48.235294%);stop-opacity:1;"
         offset="0.8939" />
    </linearGradient>
  </defs>
  <path
     id="path25"
     fill="#b8c2cc"
     d="m7 8.5442c-1.662 0-3 1.338-3 3v1c0-1.662 1.338-3 3-3h50c1.662 0 3 1.338 3 3v-1c0-1.662-1.338-3-3-3z" />
  <g
     id="g33"
     shape-rendering="auto">
    <path
       id="path27"
       style="font-feature-settings:normal;font-variant-alternates:normal;font-variant-caps:normal;font-variant-east-asian:normal;font-variant-ligatures:normal;font-variant-numeric:normal;font-variant-position:normal;font-variation-settings:normal;inline-size:0;isolation:auto;mix-blend-mode:normal;shape-margin:0;shape-padding:0;text-decoration-color:#000000;text-decoration-line:none;text-decoration-style:solid;text-indent:0;text-orientation:mixed;text-transform:none;white-space:normal"
       stroke-width="5.7734"
       stop-color="#000000"
       solid-color="#000000"
       image-rendering="optimizeSpeed"
       fill="#bcc5cf"
       dominant-baseline="auto"
       color-rendering="auto"
       color="#000000"
       d="m20.667 51h22.667l2.6667 3h-28z" />
    <path
       id="path29"
       style="font-feature-settings:normal;font-variant-alternates:normal;font-variant-caps:normal;font-variant-east-asian:normal;font-variant-ligatures:normal;font-variant-numeric:normal;font-variant-position:normal;font-variation-settings:normal;inline-size:0;isolation:auto;mix-blend-mode:normal;shape-margin:0;shape-padding:0;text-decoration-color:#000000;text-decoration-line:none;text-decoration-style:solid;text-indent:0;text-orientation:mixed;text-transform:none;white-space:normal"
       stroke-width="5.4429"
       stop-color="#000000"
       solid-color="#000000"
       image-rendering="optimizeSpeed"
       fill="url(#linearGradient29240)"
       dominant-baseline="auto"
       color-rendering="auto"
       color="#000000"
       d="m28.001 44.222h7.999v7.7779h-7.999z" />
    <path
       id="path31"
       style="font-feature-settings:normal;font-variant-alternates:normal;font-variant-caps:normal;font-variant-east-asian:normal;font-variant-ligatures:normal;font-variant-numeric:normal;font-variant-position:normal;font-variation-settings:normal;inline-size:0;isolation:auto;mix-blend-mode:normal;shape-margin:0;shape-padding:0;text-decoration-color:#000000;text-decoration-line:none;text-decoration-style:solid;text-indent:0;text-orientation:mixed;text-transform:none;white-space:normal"
       stroke-width="6.6666"
       stop-color="#000000"
       solid-color="#000000"
       image-rendering="optimizeSpeed"
       fill-opacity=".99608"
       fill="#44484c"
       dominant-baseline="auto"
       color-rendering="auto"
       color="#000000"
       d="m18 54h28v2h-28z" />
  </g>
  <rect
     id="rect35"
     stroke-width=".82192"
     stroke-linejoin="round"
     stroke-linecap="round"
     fill="url(#linearGradient1455)"
     ry="3"
     height="38"
     width="56"
     y="9"
     x="4" />
  <rect
     id="rect37"
     stroke-width=".78558"
     stroke-linejoin="round"
     stroke-linecap="round"
     fill="url(#linearGradient17498)"
     ry="2"
     height="36"
     width="54"
     y="10"
     x="5" />
  <g
     id="surface1"
     transform="matrix(0,0.38686261,-0.38686261,0,64.056044,27.074785)">
    <path
       id="path21"
       d="m 50,32 c 0,9.941406 -8.058594,18 -18,18 -9.941406,0 -18,-8.058594 -18,-18 0,-9.941406 8.058594,-18 18,-18 9.941406,0 18,8.058594 18,18 z m 0,0"
       style="fill:url(#linear0);fill-rule:nonzero;stroke:none" />
    <path
       id="path23"
       d="m 44,32 c 0,6.628906 -5.371094,12 -12,12 -6.628906,0 -12,-5.371094 -12,-12 0,-6.628906 5.371094,-12 12,-12 6.628906,0 12,5.371094 12,12 z m 0,0"
       style="fill:url(#linear1);fill-rule:nonzero;stroke:none" />
    <path
       id="path25-3"
       d="m 63.050781,24.636719 c -3.933593,-0.02734 -7.566406,-2.117188 -9.574219,-5.5 -1.898437,-3.234375 -2,-7.21875 -0.257812,-10.542969 C 49.773438,5.570312 45.71875,3.324219 41.332031,2 39.234375,5.09375 35.738281,6.941406 32,6.929688 28.261719,6.941406 24.765625,5.09375 22.671875,2 18.28125,3.324219 14.226562,5.570312 10.78125,8.59375 c 1.742188,3.324219 1.644531,7.308594 -0.257812,10.542969 -2.007813,3.382812 -5.640626,5.472656 -9.574219,5.5 -1.128907,4.378906 -1.253907,8.960937 -0.367188,13.398437 4.066407,-0.09766 7.867188,2.007813 9.941407,5.507813 C 12.636719,47.144531 12.5,51.640625 10.167969,55.109375 13.546875,58.222656 17.550781,60.570312 21.914062,62 23.816406,58.167969 27.722656,55.746094 32,55.746094 c 4.277344,0 8.183594,2.421875 10.085938,6.253906 4.363281,-1.429688 8.367187,-3.777344 11.742187,-6.890625 -2.332031,-3.464844 -2.46875,-7.960937 -0.351563,-11.566406 2.070313,-3.5 5.875,-5.605469 9.941407,-5.507813 0.882812,-4.4375 0.757812,-9.015625 -0.367188,-13.398437 z M 32,48 c -8.835938,0 -16,-7.164062 -16,-16 0,-8.835938 7.164062,-16 16,-16 8.835938,0 16,7.164062 16,16 0,8.835938 -7.164062,16 -16,16 z m 0,0"
       style="fill:url(#linear2);fill-rule:nonzero;stroke:none" />
  </g>
</svg>
