<?xml version="1.0" encoding="UTF-8"?>
<svg width="64" height="64" version="1.1" viewBox="0 0 16.933 16.933" xmlns="http://www.w3.org/2000/svg" xmlns:cc="http://creativecommons.org/ns#" xmlns:dc="http://purl.org/dc/elements/1.1/" xmlns:rdf="http://www.w3.org/1999/02/22-rdf-syntax-ns#">
 <metadata>
  <rdf:RDF>
   <cc:Work rdf:about="">
    <dc:format>image/svg+xml</dc:format>
    <dc:type rdf:resource="http://purl.org/dc/dcmitype/StillImage"/>
    <dc:title/>
   </cc:Work>
  </rdf:RDF>
 </metadata>
 <g stroke-width=".91662">
  <path d="m1.9227 1.1907c-0.40579 0-0.73229 0.32653-0.73229 0.73229v13.087c0 0.40579 0.32653 0.73277 0.73229 0.73277h13.087c0.40579 0 0.73277-0.32699 0.73277-0.73277v-13.087c0-0.40579-0.32699-0.73229-0.73277-0.73229h-8.9684z" fill="#545657"/>
  <path d="m6.0411 10.891h-4.8504v4.118c0 0.40579 0.32653 0.73277 0.73229 0.73277h4.118v-4.8508z" fill="#2c3e50"/>
  <path d="m6.0411 10.891v4.8508h4.8504v-4.8508z" fill="#c0392b" fill-opacity=".90196"/>
  <path d="m10.891 10.891v4.8508h4.118c0.40579 0 0.73277-0.32699 0.73277-0.73277v-4.118h-4.8508z" fill="#e74c3c"/>
  <path d="m6.0411 6.0411h-4.8504v4.8504h4.8504z" fill="#8e44ad"/>
  <path d="m6.0411 6.0411v4.8504h4.8504v-4.8504z" fill="#27ae60" fill-opacity=".90196"/>
  <path d="m10.891 6.0411v4.8504h4.8508v-4.8504z" fill="#f1c40f" fill-opacity=".90196"/>
  <path d="m10.891 1.1907v4.8504h4.8508v-4.118c0-0.40579-0.32699-0.73229-0.73277-0.73229h-4.118z" fill="#ddc69c" fill-opacity=".90196"/>
  <path d="m6.0411 1.1907v4.8504h4.8504v-4.8504z" fill="#e68f2b" fill-opacity=".90196"/>
 </g>
 <path d="m1.9227 1.1907c-0.40579 0-0.73229 0.32653-0.73229 0.73229v4.118h4.8504v-4.8504h-4.118z" fill="#5598db" stroke-width=".91662"/>
</svg>
